<?xml version="1.0" encoding="utf-8"?>
<!-- Generator: Adobe Illustrator 27.2.0, SVG Export Plug-In . SVG Version: 6.00 Build 0)  -->
<svg version="1.1" id="Layer_1" xmlns="http://www.w3.org/2000/svg" xmlns:xlink="http://www.w3.org/1999/xlink" x="0px" y="0px"
	 viewBox="0 0 1000 1000" style="enable-background:new 0 0 1000 1000;" xml:space="preserve">
<style type="text/css">
	.st0{fill:none;stroke:#000000;stroke-miterlimit:10;}
</style>
<path class="st0" d="M800,542.44c-57.06-47.73-110.57-92.48-166.1-138.93c23.35-15.21,45.46-29.61,70.01-45.6
	c-19.57-6.03-37.09-11.42-57.94-17.84c35.96-51.27,70.68-100.78,107.28-152.97c-69.26,14.19-134.79,27.61-202.68,41.51
	c2.91-28.9,5.66-56.19,8.5-84.3c-19.32,13.37-38.27,26.47-58.67,40.59C482.34,121.96,465.49,63.2,447.36,0
	c-30.63,61.04-59.18,117.93-88.67,176.7c-18.8-16.9-36.62-32.93-55.55-49.95c-1.76,25.04-3.4,48.47-5.29,75.42
	c-62.12-25.57-122.33-50.36-186.15-76.63c27.94,61.86,54.17,119.95,81.22,179.84c-21.72,3.01-41.83,5.8-65.61,9.1
	c19.28,17.04,36.76,32.49,55.47,49.03L0,468.29l197.69,47.86c-10.1,16.51-19.95,32.61-32.12,52.5c22.55-3.66,42.2-6.85,64.41-10.46
	c-11.64,69.07-23.06,136.84-35.15,208.56c58.33-44.57,114-87.11,170.94-130.61c7.54,20.65,14.6,39.98,22.68,62.08
	c9.91-17.17,18.33-31.77,27.82-48.21L551.61,800l2.23-220.51c27.39,8.83,50.05,16.13,74.28,23.94
	c-7.31-17.69-13.83-33.46-20.68-50.06C670.97,549.76,732.8,546.25,800,542.44z"/>
</svg>
