<?xml version="1.0" encoding="utf-8"?>
<!-- Generator: Adobe Illustrator 27.2.0, SVG Export Plug-In . SVG Version: 6.00 Build 0)  -->
<svg version="1.1" id="Layer_1" xmlns="http://www.w3.org/2000/svg" xmlns:xlink="http://www.w3.org/1999/xlink" x="0px" y="0px"
	 viewBox="0 0 1000 1000" style="enable-background:new 0 0 1000 1000;" xml:space="preserve">
<g>
	<path d="M361.25,573.2c0-34.47,0-68.35,0-103.26c35.34,0,68.42,0,101.46,0c0-30.69,0-60.21,0-90.82c-34.59,0-67.67,0-101.84,0
		c0-18.19,0.12-35.27-0.03-52.34c-0.15-16.75,0.63-33.58-0.35-48.83c-31.86,0-60.61,0-90.43,0c0,34.29,0,67.37,0,102.69
		c-34.95,0-68.84,0-102.03,0c0,31.05,0,59.81,0,89.67c33.99,0,67.07,0,103.54,0c0,36.5,0,69.57,0,102.88
		C301.47,573.2,330.22,573.2,361.25,573.2z"/>
	<path d="M97.08,302.71c0-16.19,0.17-44.62,0.17-44.62l43.31-0.14c0-15.25,0-37.66,0-53.14c-15.98,0-29.68,0-45.6,0
		c0-15.58,0-30.03,0-43.19c-18.15,0-34,0-50.88,0c0,14.85,0,28.53,0,44.48c-15.53,0-30.12,0-44.09,0c0,18.13,0,33.96,0,52.04
		c15.3,0,45.32,0,45.32,0c0,15.98,0,29.7,0,44.58H97.08z"/>
	<path d="M224.88,167.55c0,27.97,0,55.41,0,82.52l-83.1,0.61v71.98c28.87,0,55.48,0,84.32,0c0,17.73,0,34.41,0,49.86
		c13.85,0,25.41,0,37.97,0c0-34.15,0-67.21,0-100.99c34.94,0,68.75,0,104.95,0c0,17.72,0,31.18,0,48.75c0.39,0,7.71-0.26,10.25-0.26
		c0-23.28,0-45.58,0-68.96c-27.54,0-54.15,0-84.14,0c0-30.02,0-56.64,0-83.5C271.72,167.55,249.43,167.55,224.88,167.55z"/>
	<path d="M385.92,326.97c-7.35,0-11.92,0.16-17.63,0.16c0,10.83,0,22.96,0,32.92c23.25,0,45.53,0,71.22,0c0-29.21,0-55.81,0-83.48
		c27.71,0,54.32,0,81.56,0c0-30.64,0-60.14,0-90.75c-27.87,0-54.48,0-83.31,0c0-28.46,0-55.89,0-82.57c-28.87,0-55.47,0-84.29,0
		c0,28.31,0,55.74,0,84.12c-18.12,0-33.99,0-50.12,0c0,19.11,0,37.09,0,57.33c27.95,0,55.38,0,82.56,0
		C385.92,273.57,385.92,300.16,385.92,326.97z"/>
	<path d="M380.44,600.84c-25.74,0-48.06,0-71.44,0c0,21.27,0,41.44,0,63.84c-22.01,0-43.02,0-63.55,0c0,24.59,0,46.89,0,71.44
		c21.75,0,42.76,0,64.69,0c0,22.44,0,42.61,0,63.84c12.8,0,24.5,0.12,36.19-0.04c11.37-0.15,22.74-0.6,35.15-0.94
		c0-22.67,0-42.81,0-64c21.37,0,41.54,0,61.94,0c0-24.23,0-47.29,0-71.44c-21.57,0-41.73,0-62.98,0
		C380.44,642.28,380.44,622.12,380.44,600.84z"/>
	<path d="M508.68,387.2c-12.65,0-24.18,0-39.14,0c0,31.34,0,60.11,0,89.96c-27.73,0-54.35,0-81.5,0c0,11.32,0,21.46,0,32.68
		c21.48,0,41.64,0,64.03,0c0,22.04,0,43.01,0,62.98c20.3,0,38.3,0,57.38,0c0-11.64-0.15-22.26,0.04-32.87
		c0.18-10.3,0.71-20.59,1.13-31.92c22.47,0,42.61,0,62.66,0c0-19.24,0-37.22,0-57.47c-21.65,0-42.63,0-64.6,0
		C508.68,428.13,508.68,407.97,508.68,387.2z"/>
	<path d="M587.15,120.93c0-14.81,0-28.5,0-43.32c-19.29,0-35.16,0-52.06,0c0,14.81,0,28.51,0,44.46c-15.57,0-30.11,0-44.18,0
		c0,18.14,0,33.98,0,52.06c15.3,0,29.82,0,45.31,0c0,15.99,0,29.71,0,44.61c17.99,0,33.3,0,51.65,0c0-16.18,0.31-31.05,0.31-45.75
		c14.92,0,28.6,0,42.56,0c0-17.78,0-34.37,0-52.06C615.63,120.93,601.93,120.93,587.15,120.93z"/>
	<path d="M161.38,146.86c16.96,0,32.79,0,52.05,0c0-18.44,0-34.31,0-51.21c14.81,0,28.53,0,42.74,0c0-15.62,0-30.06,0-45.6
		c-15.02,0-28.74,0-44.65,0c0-17.74,0-34.42,0-50.06c-18.15,0-34,0-52.1,0c0,17.6,0,34.21,0,51.87c-16.02,0-29.72,0-43.27,0
		c0,14.93,0,28.62,0,44.55c15.2,0,29.74,0,45.22,0C161.38,114.56,161.38,130.41,161.38,146.86z"/>
	<path d="M96.4,521.33c18.14,0,33.98,0,50.91,0c0-14.52,0.6-35.52,0.6-49.2c5.12,0,7.01-0.27,12.81-0.27c0-16.31,0-31.19,0-46.29
		c-4.08,0-8.7,0-13.35,0c0-14.31-0.06-30.13-0.06-44.08c-17.78,0-34.37,0-52.06,0c0,15.13,0,28.83,0,44.75c-15.6,0-30.09,0-44.45,0
		c0,17.35,0,29.48,0,46.83c14.37,0,28.87-0.13,45.6-0.13C96.41,489.65,96.4,507.27,96.4,521.33z"/>
	<path d="M288.58,579.94c-23.53,0-45.85,0-70.39,0c0-26.33,0-51.63,0-76.18c-18.14,0-33.99,0-50.92,0c0,25.38,0,49.85,0,77.71
		c-27.89,0-52.36,0-77.04,0c0,14.83,0,28.51,0,44.46c25.85,0,51.14,0,77.42,0c0,26.73,0,51.2,0,75.61c17.79,0,34.39,0,52.06,0
		c0-25.98,0-50.45,0-75.99l68.87-0.53C288.58,608.72,288.58,594.64,288.58,579.94z"/>
</g>
</svg>
