<?xml version="1.0" encoding="utf-8"?>
<!-- Generator: Adobe Illustrator 27.2.0, SVG Export Plug-In . SVG Version: 6.00 Build 0)  -->
<svg version="1.1" id="Layer_1" xmlns="http://www.w3.org/2000/svg" xmlns:xlink="http://www.w3.org/1999/xlink" x="0px" y="0px"
	 viewBox="0 0 1000 1000" style="enable-background:new 0 0 1000 1000;" xml:space="preserve">
<g>
	<path d="M170.28,727.32c3.66-9.34,6.9-16.18,9.07-23.34c26.85-88.82,54.12-177.52,79.47-266.77c2.82-9.93-3.13-24.41-9.03-34.42
		c-38.06-64.54-42.68-130.93-10.3-198.21c26.25-54.55,68.19-91.91,135.49-110.06c-13.61,42.15-22.16,78.83-37.25,112.59
		c-16.12,36.08-6.3,58.91,17.69,88.83c34.28,42.75,66.54,59.18,122.52,43.49c40.06-11.22,63.92-25.09,73.22-66.66
		c7.72-34.5,22.32-67.46,36.75-109.48c11.8,19.38,19.34,29.69,24.76,41.01c52.31,109.36,3.02,233.59-110.17,283.17
		c-14.61,6.4-29.45,21.48-35.75,36.16c-35.33,82.34-68.12,165.77-101.62,248.89c-3.06,7.58-4.96,15.63-7.53,23.9
		c194.36,27.14,380.6-102.89,430.24-298.08c50.18-197.3-58.99-403.72-250.67-473.95C345.17-45.95,130.32,40.43,39.92,224.3
		C-46.32,399.74,11.71,627.77,170.28,727.32z"/>
</g>
</svg>
