<?xml version="1.0" encoding="utf-8"?>
<!-- Generator: Adobe Illustrator 27.2.0, SVG Export Plug-In . SVG Version: 6.00 Build 0)  -->
<svg version="1.1" id="Layer_1" xmlns="http://www.w3.org/2000/svg" xmlns:xlink="http://www.w3.org/1999/xlink" x="0px" y="0px"
	 viewBox="0 0 1000 1000" style="enable-background:new 0 0 1000 1000;" xml:space="preserve">
<g>
	<path d="M316.18,0c15.79,0,34.07,0.44,49.79,1.43c163.67,10.39,239.26,109.04,217.34,271.21c-6.45,47.73,5.04,99.7,16.76,147.67
		c20.17,82.58,11.84,119.42-62.86,153.16c-58,26.2-89.57,61.21-96.37,125.87c-5.02,47.8-87.06,101.84-152.79,100.63
		c-52.74-0.97-99.28-29.76-115.24-81.56c-22.39-72.71-52.38-128.91-132.19-156.24C-7.15,545.83-2.34,491.11,2.31,445.76
		c6.07-59.17,20.42-119.47,14.36-177.53C-1.5,94.31,150.5,6.63,271.27,1.34C287.02,0.65,300.39-0.05,316.18,0z M412.95,294.63
		c-46.89,0.39-82.45,33.72-79.91,74.88c2.68,43.31,68.23,93.24,121.85,81.33c22.09-4.91,48.26-38.49,53.31-63
		C518.4,338.47,467.99,294.17,412.95,294.63z M151.53,295.28c-38.74,4.77-65.48,30.27-66.67,78.79
		c-0.9,36.61,14.32,60.56,54.68,60.9c46.94,0.39,87.32-36.96,86.88-79.87C225.96,311.31,202.2,293.26,151.53,295.28z"/>
</g>
</svg>
